<svg viewBox="0 0 60.957 16.573" xmlns="http://www.w3.org/2000/svg">
    <path
    fill-rule="evenodd"
    stroke-linecap="round"
    d="m0 12.373.01-.293a12.628 12.628 0 0 1 1.484-5.517 11.774 11.774 0 0 1 2.034-2.826 10.654 10.654 0 0 1 1.15-1.012 8.473 8.473 0 0 1 1.32-.838q.82-.413 1.62-.545a4.599 4.599 0 0 1 .751-.063 3.176 3.176 0 0 1 .943.134 2.488 2.488 0 0 1 1.206.814 2.934 2.934 0 0 1 .663 1.613 3.845 3.845 0 0 1 .02.398 4.155 4.155 0 0 1-.418 1.789 5.87 5.87 0 0 1-.627 1.024 5.153 5.153 0 0 1-.483.557q-.283.28-.58.47a2.825 2.825 0 0 1-.216.125 1.787 1.787 0 0 1-.242.107q-.194.069-.368.069a1.152 1.152 0 0 1-.408-.072 1.091 1.091 0 0 1-.105-.045 1.461 1.461 0 0 1-.307-.204 1.315 1.315 0 0 1-.093-.089 2.133 2.133 0 0 1-.163-.186q-.17-.22-.201-.412a.527.527 0 0 1-.008-.086.917.917 0 0 1 .011-.148q.013-.075.039-.134a.341.341 0 0 1 .107-.138Q8.74 5.713 9.326 4.492A2.439 2.439 0 0 0 9.494 4a1.978 1.978 0 0 0 .047-.426 1.443 1.443 0 0 0-.043-.368q-.124-.471-.612-.559a1.372 1.372 0 0 0-.243-.02 2.91 2.91 0 0 0-1.267.308q-.826.397-1.683 1.303A11.524 11.524 0 0 0 4.2 6.221a15.206 15.206 0 0 0-.909 1.767q-.996 2.315-1.055 4.248-.059 1.254.315 2.005a1.895 1.895 0 0 0 .662.759 1.44 1.44 0 0 0 .503.204 2.033 2.033 0 0 0 .415.04 2.175 2.175 0 0 0 1.04-.263 3.124 3.124 0 0 0 .854-.665q.762-.878.782-1.826a1.839 1.839 0 0 0 0-.05q0-.2-.044-.363a.882.882 0 0 0-.464-.573 2.101 2.101 0 0 0-.425-.157 2.341 2.341 0 0 0-.039-.009 2.491 2.491 0 0 1-.174-.047q-.085-.027-.156-.057a1.207 1.207 0 0 1-.08-.038.211.211 0 0 1-.067-.052q-.067-.08-.026-.228a.595.595 0 0 1 .01-.032q.078-.23.293-.474a2.278 2.278 0 0 1 .392-.349q.401-.276.848-.276.174 0 .483.059a7.383 7.383 0 0 1 .191.039 18.622 18.622 0 0 0 .341.072q.464.094.701.11a1.327 1.327 0 0 0 .091.003 9.974 9.974 0 0 0 .138-.001q.197-.002.326-.013A2.635 2.635 0 0 0 9.492 10a6.214 6.214 0 0 0 .573-.154 5.416 5.416 0 0 0 .179-.061 1.446 1.446 0 0 1 .101-.03q.47-.122.475.28a.7.7 0 0 1 0 .009 2.008 2.008 0 0 1-.185.854 2.041 2.041 0 0 1-.508.684 2.34 2.34 0 0 1-1.46.6q-.097.006-.197.006a3.249 3.249 0 0 1-.062 0q.108.634-.449 1.64a5.216 5.216 0 0 1-2.832 2.49 3.83 3.83 0 0 1-.881.21 4.892 4.892 0 0 1-.589.035 4.026 4.026 0 0 1-1.008-.123 3.533 3.533 0 0 1-.491-.166 3.289 3.289 0 0 1-1.172-.825 3.705 3.705 0 0 1-.783-1.471Q0 13.263 0 12.373Zm56.436-2.529-.831.996-1.601 2.041a54.2 54.2 0 0 0-.268.514q-.326.635-.55 1.119a18.104 18.104 0 0 0-.071.154l-.527 1.133q-.163.333-.291.509a1.116 1.116 0 0 1-.066.082.498.498 0 0 1-.324.165.707.707 0 0 1-.086.006 1.366 1.366 0 0 1-.498-.093 1.577 1.577 0 0 1-.274-.137 1.334 1.334 0 0 1-.141-.102 1.316 1.316 0 0 1-.195-.202q-.176-.227-.176-.482a.373.373 0 0 1 .012-.083q.031-.135.151-.387a6.092 6.092 0 0 1 .052-.106l.371-.791a10.642 10.642 0 0 0 .092-.188q.142-.301.318-.711l.547-1.338q.936-2.34 1.112-3.334a2.286 2.286 0 0 0 .04-.386 1.09 1.09 0 0 0-.028-.258.687.687 0 0 0-.265-.406l-.195-.137a.21.21 0 0 1-.077-.104q-.013-.037-.018-.083a.517.517 0 0 1-.003-.052.458.458 0 0 1 .062-.227.645.645 0 0 1 .07-.1 1.069 1.069 0 0 1 .183-.17 1.416 1.416 0 0 1 .164-.104 2.074 2.074 0 0 1 .51-.185 1.781 1.781 0 0 1 .374-.04 3.27 3.27 0 0 1 .252.01q.267.02.436.088a1.296 1.296 0 0 1 .263.14 1.099 1.099 0 0 1 .147.124 1.467 1.467 0 0 1 .191.216q.101.143.142.29a.762.762 0 0 1 .029.207 3.109 3.109 0 0 1-.093.747 7.214 7.214 0 0 1-.217.713 7.905 7.905 0 0 1-.017.048 17.415 17.415 0 0 1-.298.757q-.108.255-.201.464a14.546 14.546 0 0 1-.082.181l-.196.42a5.815 5.815 0 0 0-.012.024q-.062.126-.028.075a.437.437 0 0 0 .001-.002 207.25 207.25 0 0 1 .439-.606q.72-.991.987-1.327l.684-.82a15.025 15.025 0 0 1 .355-.403q.349-.379.611-.597a2.42 2.42 0 0 1 .215-.163 6.236 6.236 0 0 1 .412-.256q.412-.233.719-.301a1.096 1.096 0 0 1 .236-.029q.391 0 .686.079a1.683 1.683 0 0 1 .154.048 1.79 1.79 0 0 1 .564.333 1.72 1.72 0 0 1 .032.029q.537.498.537 1.269 0 .772-.352 1.612a39.02 39.02 0 0 1-.17.4q-.211.49-.384.848a12.845 12.845 0 0 1-.056.114 24.123 24.123 0 0 0-.493 1.059q-.732 1.631-.732 2.374a.277.277 0 0 0 .157.263q.118.062.323.068a1.565 1.565 0 0 0 .047.001 1.656 1.656 0 0 0 .518-.08 1.508 1.508 0 0 0 .229-.096q.337-.176.435-.176a.295.295 0 0 1 .081.01q.124.036.124.195a1.552 1.552 0 0 1-.48 1.124 2.526 2.526 0 0 1-.409.331 3.008 3.008 0 0 1-.38.22q-.211.1-.407.145a1.383 1.383 0 0 1-.307.036 3.823 3.823 0 0 1-.336-.014q-.279-.025-.489-.094a1.569 1.569 0 0 1-.581-.342q-.576-.517-.576-1.445a4.68 4.68 0 0 1 .084-.846q.161-.871.629-1.986a119.128 119.128 0 0 1 .233-.52q.257-.571.413-.896a12.191 12.191 0 0 1 .086-.176l.332-.693q.303-.625.303-.986 0-.3-.37-.351a1.228 1.228 0 0 0-.167-.011.47.47 0 0 0-.179.041q-.246.103-.603.461a5.469 5.469 0 0 0-.078.079 32.084 32.084 0 0 0-.459.489q-.277.302-.507.571Zm-16.563-.528-.537 1.807a55.938 55.938 0 0 0-.236.843q-.457 1.692-.457 2.224 0 .636.452.653a.672.672 0 0 0 .026.001 2.696 2.696 0 0 0 .27-.013q.256-.026.433-.104l.371-.176a.537.537 0 0 1 .086-.038q.054-.018.105-.02a.329.329 0 0 1 .014-.001.281.281 0 0 1 .083.011q.09.028.114.126a.333.333 0 0 1 .008.078 1.54 1.54 0 0 1-.408 1.041q-.187.214-.461.404-.576.411-1.089.411a3.647 3.647 0 0 1-.313-.013q-.149-.013-.275-.039a1.449 1.449 0 0 1-.227-.066 1.484 1.484 0 0 1-.477-.302 1.751 1.751 0 0 1-.07-.069 1.946 1.946 0 0 1-.456-.85q-.079-.301-.089-.658a3.723 3.723 0 0 1-.002-.103 1.63 1.63 0 0 1 .005-.118q.01-.134.04-.33a9.554 9.554 0 0 1 .033-.206q-.657 1.015-1.16 1.53a3.561 3.561 0 0 1-.197.188q-1.143 1.036-2.236 1.036a2.897 2.897 0 0 1-.895-.129q-.878-.284-1.278-1.196a3.093 3.093 0 0 1-.093-.238 3.3 3.3 0 0 1-.126-.514q-.069-.414-.069-.931a6.107 6.107 0 0 1 .224-1.619 6.871 6.871 0 0 1 .039-.139 8.063 8.063 0 0 1 .718-1.69q.454-.8 1.055-1.489a8.977 8.977 0 0 1 .936-.931 7.893 7.893 0 0 1 .329-.265 7.353 7.353 0 0 1 .843-.55q.933-.515 1.735-.515 1.152 0 1.845.938Q40.171 1.524 41.03.448a1.597 1.597 0 0 1 .015-.018q.361-.43.762-.43.664 0 1.006.381a.547.547 0 0 1 .061.087q.046.084.046.167a.361.361 0 0 1-.009.071q-.023.114-.11.315a4.679 4.679 0 0 1-.037.083 10.272 10.272 0 0 0-.088.197q-.144.335-.371.906a201.931 201.931 0 0 0-.403 1.071q-.554 1.49-.818 2.288a537.416 537.416 0 0 0-.389 1.184q-.446 1.364-.691 2.144a53.49 53.49 0 0 0-.131.422Zm-20.126 5.449a.867.867 0 0 0 .028.001 2.328 2.328 0 0 0 .307-.019q.24-.032.421-.118.239-.113.347-.133a.224.224 0 0 1 .039-.004.281.281 0 0 1 .082.011q.091.028.114.126a.333.333 0 0 1 .009.078 1.525 1.525 0 0 1-.397 1.023q-.181.209-.444.396a3.236 3.236 0 0 1-.038.026 2.595 2.595 0 0 1-.542.288q-.666.254-1.353.025a1.464 1.464 0 0 1-.753-.609 2.16 2.16 0 0 1-.184-.358 2.495 2.495 0 0 1-.095-.298q-.039-.157-.048-.301a1.402 1.402 0 0 1-.004-.094 5.94 5.94 0 0 1 .042-.692 7.166 7.166 0 0 1 .056-.382 7.696 7.696 0 0 1-.676 1.139q-.695.958-1.58 1.419a2.484 2.484 0 0 1-1.142.274 2.478 2.478 0 0 1-.524-.053 1.881 1.881 0 0 1-.526-.196 2.3 2.3 0 0 1-.737-.662 2.651 2.651 0 0 1-.02-.027q-.581-.84-.581-2.074a5.473 5.473 0 0 1 .005-.231 6.981 6.981 0 0 1 .67-2.727 8.551 8.551 0 0 1 .355-.681q.889-1.562 2.246-2.549.955-.707 1.823-.917a3.042 3.042 0 0 1 .716-.089 2.114 2.114 0 0 1 1.643.744 3.052 3.052 0 0 1 .262.34 5.722 5.722 0 0 1 .277-.409q.506-.675.914-.675a2.419 2.419 0 0 1 .306.019q.152.019.276.059a.924.924 0 0 1 .258.128 2.101 2.101 0 0 1 .162.129q.254.227.254.417a.287.287 0 0 1-.035.137q-2.451 5.02-2.52 6.25a3.233 3.233 0 0 0-.018.269 3.754 3.754 0 0 0-.001.102q0 .878.606.898Zm22.362-3.344a6.373 6.373 0 0 0-.283 1.626q-.019.541.07 1.009a3.077 3.077 0 0 0 .848 1.647 2.858 2.858 0 0 0 1.289.734 3.89 3.89 0 0 0 1.016.126q1.187 0 2.088-.294a3.884 3.884 0 0 0 1.574-.937 1.378 1.378 0 0 0 .207-.377 1.534 1.534 0 0 0 .086-.521 1.04 1.04 0 0 0 0-.025.867.867 0 0 0-.132-.449q-.132-.21-.308-.21-.131 0-.299.135a1.443 1.443 0 0 0-.116.104q-.239.24-.62.464a4.998 4.998 0 0 1-.439.243 3.996 3.996 0 0 1-1.768.421 1.455 1.455 0 0 1-.065-.001q-.378-.017-.65-.233a1.29 1.29 0 0 1-.3-.352 1.635 1.635 0 0 1-.103-.19 1.877 1.877 0 0 1-.132-.41 3.183 3.183 0 0 1-.045-.283q-.015-.135-.015-.258a1.943 1.943 0 0 1 .002-.07q.007-.196.029-.322a.871.871 0 0 1 .02-.088 10.396 10.396 0 0 0 .392-.012 9.086 9.086 0 0 0 2.576-.496 7.471 7.471 0 0 0 .126-.046 6.699 6.699 0 0 0 1.119-.549 5.342 5.342 0 0 0 .276-.182 4.56 4.56 0 0 0 .711-.614 3.434 3.434 0 0 0 .649-.987 2.866 2.866 0 0 0 .117-.321 3.177 3.177 0 0 0 .127-.86 3.964 3.964 0 0 0 .001-.061q0-.601-.186-1.048a2.03 2.03 0 0 0-1.376-1.268 3.098 3.098 0 0 0-.851-.109 4.149 4.149 0 0 0-1.705.379 5.858 5.858 0 0 0-1.117.666 7.563 7.563 0 0 0-1.196 1.138 8.791 8.791 0 0 0-.962 1.377 7.854 7.854 0 0 0-.655 1.504ZM23.975 7.559l-.196-.137a.21.21 0 0 1-.063-.086q-.015-.035-.023-.079a.553.553 0 0 1-.006-.074q-.004-.122.059-.236a.627.627 0 0 1 .063-.091 1.066 1.066 0 0 1 .188-.18 1.372 1.372 0 0 1 .144-.094 1.875 1.875 0 0 1 .589-.203 1.732 1.732 0 0 1 .275-.022 3.27 3.27 0 0 1 .259.01q.244.02.41.079a.918.918 0 0 1 .024.009 1.385 1.385 0 0 1 .283.149 1.199 1.199 0 0 1 .142.115q.285.27.354.564a.824.824 0 0 1 .022.178 3.124 3.124 0 0 1 0 .039 3.323 3.323 0 0 1-.088.752 9.042 9.042 0 0 1-.22.786 25.2 25.2 0 0 1-.127.376 21.845 21.845 0 0 1-.126.357q-.096.261-.142.42a1.953 1.953 0 0 0-.025.092q-.077.339-.058.428a.111.111 0 0 0 0 .002 1.356 1.356 0 0 0 .127-.126q.059-.067.098-.134a.546.546 0 0 0 .058-.14l.381-.723a15.588 15.588 0 0 1 .705-1.156q.746-1.104 1.471-1.661a3.526 3.526 0 0 1 .304-.21 1.466 1.466 0 0 1 .468-.172 2.008 2.008 0 0 1 .377-.034 1.137 1.137 0 0 1 .382.062.976.976 0 0 1 .414.285 1.33 1.33 0 0 1 .228.359 1.146 1.146 0 0 1 .089.408 3.948 3.948 0 0 1 .003.119q.001.27-.038.475a1.523 1.523 0 0 1-.023.104q-.073.278-.22.522-.193.328-.435.459a.715.715 0 0 1-.346.088.354.354 0 0 1-.207-.067.455.455 0 0 1-.028-.021l-.214-.185q-.218-.191-.424-.253a.678.678 0 0 0-.196-.03q-.254 0-.599.282a2.867 2.867 0 0 0-.124.108q-.425.391-.884 1.006a18.586 18.586 0 0 0-2.395 4.256 20.696 20.696 0 0 0-.124.314l-.43 1.133a6.438 6.438 0 0 1-.081.195q-.117.27-.212.406a.412.412 0 0 1-.301.176.614.614 0 0 1-.075.005 1.406 1.406 0 0 1-.459-.079 1.602 1.602 0 0 1-.039-.014 1.817 1.817 0 0 1-.34-.168 1.617 1.617 0 0 1-.104-.071q-.196-.147-.313-.328a1.176 1.176 0 0 1-.061-.105q-.058-.113-.066-.204a.34.34 0 0 1 0-.003.49.49 0 0 1-.001-.036q0-.093.032-.21a1.398 1.398 0 0 1 .023-.076q.043-.131.108-.301a14.033 14.033 0 0 1 .063-.163 69.496 69.496 0 0 0 .776-1.991q1.011-2.727 1.181-4.093a4.066 4.066 0 0 0 .035-.498 1.24 1.24 0 0 0-.041-.255q-.075-.272-.281-.409ZM35.96 13.19a13.015 13.015 0 0 0 .036-.055 13.031 13.031 0 0 0 1.895-4.424 1.405 1.405 0 0 0-.089-.428 1.089 1.089 0 0 0-.468-.549.597.597 0 0 0-.142-.061q-.156-.046-.39-.046a1.218 1.218 0 0 0-.297.039q-.137.035-.289.1a2.875 2.875 0 0 0-.244.12q-.474.259-.918.698a5.882 5.882 0 0 0-.577.667 7.088 7.088 0 0 0-.253.363q-.386.591-.669 1.255a7.829 7.829 0 0 0-.506 1.653 6.546 6.546 0 0 0-.11 1.184 3.849 3.849 0 0 0 .027.472q.06.487.26.716a.588.588 0 0 0 .465.204q.992 0 2.269-1.908Zm-21.874 1.781a.673.673 0 0 0 .387.107.918.918 0 0 0 .38-.093q.455-.208 1.036-.883 1.23-1.436 2.177-3.868.303-.761.508-1.523a1.405 1.405 0 0 0-.088-.428 1.089 1.089 0 0 0-.468-.549q-.168-.102-.49-.107a2.159 2.159 0 0 0-.033 0q-.254 0-.571.137a2.828 2.828 0 0 0-.239.117 3.58 3.58 0 0 0-.555.378 4.553 4.553 0 0 0-.344.315 5.551 5.551 0 0 0-.52.613 6.839 6.839 0 0 0-.29.427 8.175 8.175 0 0 0-.587 1.13 9.105 9.105 0 0 0-.073.174 8.411 8.411 0 0 0-.537 2.059 7.494 7.494 0 0 0-.058.929q0 .817.365 1.065Zm31.537-6.006a6.527 6.527 0 0 0-.066.098 9.481 9.481 0 0 0-.822 1.55 12.412 12.412 0 0 0-.467 1.321 4.746 4.746 0 0 0 2.832-1.289q.65-.622.917-1.212a1.955 1.955 0 0 0 .186-.81 2.054 2.054 0 0 0-.026-.341q-.105-.626-.648-.626-.989 0-1.906 1.309Z"
    />
</svg>